<svg id="Layer_1" data-name="Layer 1" xmlns="http://www.w3.org/2000/svg" viewBox="0 0 347 347"><defs><style>.cls-1{fill:#fff;}</style></defs><title>close</title><path class="cls-1" d="M200,26.5C104.33,26.5,26.5,104.33,26.5,200S104.33,373.5,200,373.5,373.5,295.67,373.5,200,295.67,26.5,200,26.5Zm79.81,38.93-78,111.87L124.91,62.73a156.21,156.21,0,0,1,154.9,2.7ZM43.5,200A156.27,156.27,0,0,1,102,78.12l81.92,117.5L98.58,319.08A156.2,156.2,0,0,1,43.5,200Zm74.59,133.3,80.12-118.17,81.16,119.7a156.18,156.18,0,0,1-161.28-1.53Zm183.29-14.18-85.65-123.5L299.07,78.94a156.29,156.29,0,0,1,2.31,240.18Z" transform="translate(-26.5 -26.5)"/></svg>